<svg xmlns="http://www.w3.org/2000/svg" xmlns:xlink="http://www.w3.org/1999/xlink" width="300" zoomAndPan="magnify" viewBox="0 0 224.87999 56.249996" height="75" preserveAspectRatio="xMidYMid meet" version="1.0"><defs><g/><clipPath id="39ae2ca988"><path d="M 1.421875 0 L 223.339844 0 L 223.339844 55.511719 L 1.421875 55.511719 Z M 1.421875 0 " clip-rule="nonzero"/></clipPath></defs><g clip-path="url(#39ae2ca988)"><path fill="#ffffff" d="M 1.421875 0 L 223.460938 0 L 223.460938 55.511719 L 1.421875 55.511719 Z M 1.421875 0 " fill-opacity="1" fill-rule="nonzero"/><path fill="#ffffff" d="M 1.421875 0 L 223.460938 0 L 223.460938 55.511719 L 1.421875 55.511719 Z M 1.421875 0 " fill-opacity="1" fill-rule="nonzero"/></g><g fill="#000000" fill-opacity="1"><g transform="translate(52.739904, 52.780129)"><g><path d="M 48.921875 0 L 38.3125 0 L 34.484375 -11.75 L 14.953125 -11.75 L 11.125 0 L 0.765625 0 L 18.375 -50.96875 L 31.3125 -50.96875 Z M 24.234375 -40.34375 L 17.671875 -20.21875 L 31.6875 -20.21875 L 25.109375 -40.34375 Z M 24.234375 -40.34375 "/></g></g></g><g fill="#000000" fill-opacity="1"><g transform="translate(102.419774, 52.780129)"><g><path d="M 27.859375 0.734375 C 23.160156 0.734375 19.019531 -0.238281 15.4375 -2.1875 C 11.863281 -4.144531 9.066406 -7.082031 7.046875 -11 C 5.023438 -14.914062 4.015625 -19.742188 4.015625 -25.484375 C 4.015625 -31.222656 5.023438 -36.050781 7.046875 -39.96875 C 9.066406 -43.882812 11.863281 -46.816406 15.4375 -48.765625 C 19.019531 -50.722656 23.160156 -51.703125 27.859375 -51.703125 C 32.765625 -51.703125 36.929688 -50.742188 40.359375 -48.828125 C 43.785156 -46.910156 46.234375 -43.988281 47.703125 -40.0625 L 40.34375 -35.5625 L 39.46875 -35.59375 C 38.375 -38.25 36.890625 -40.148438 35.015625 -41.296875 C 33.148438 -42.453125 30.765625 -43.03125 27.859375 -43.03125 C 23.628906 -43.03125 20.328125 -41.628906 17.953125 -38.828125 C 15.585938 -36.023438 14.40625 -31.578125 14.40625 -25.484375 C 14.40625 -19.421875 15.585938 -14.988281 17.953125 -12.1875 C 20.328125 -9.382812 23.628906 -7.984375 27.859375 -7.984375 C 34.484375 -7.984375 38.539062 -11.203125 40.03125 -17.640625 L 40.890625 -17.640625 L 48.328125 -13.765625 C 46.929688 -8.929688 44.546875 -5.304688 41.171875 -2.890625 C 37.804688 -0.472656 33.367188 0.734375 27.859375 0.734375 Z M 27.859375 0.734375 "/></g></g></g><g fill="#c98665" fill-opacity="1"><g transform="translate(152.4148, 52.780129)"><g><path d="M 9.828125 0.3125 C 8.597656 0.3125 7.507812 0.0625 6.5625 -0.4375 C 5.625 -0.9375 4.90625 -1.625 4.40625 -2.5 C 3.90625 -3.382812 3.65625 -4.390625 3.65625 -5.515625 C 3.65625 -6.628906 3.90625 -7.625 4.40625 -8.5 C 4.90625 -9.382812 5.625 -10.082031 6.5625 -10.59375 C 7.507812 -11.101562 8.597656 -11.359375 9.828125 -11.359375 C 11.085938 -11.359375 12.1875 -11.109375 13.125 -10.609375 C 14.070312 -10.109375 14.789062 -9.414062 15.28125 -8.53125 C 15.78125 -7.65625 16.03125 -6.660156 16.03125 -5.546875 C 16.03125 -3.847656 15.46875 -2.445312 14.34375 -1.34375 C 13.21875 -0.238281 11.710938 0.3125 9.828125 0.3125 Z M 9.828125 0.3125 "/></g></g></g></svg>