<svg xmlns="http://www.w3.org/2000/svg" xmlns:xlink="http://www.w3.org/1999/xlink" width="64" zoomAndPan="magnify" viewBox="0 0 48 48" height="64" preserveAspectRatio="xMidYMid meet" version="1.0"><defs><g/><clipPath id="fac911d0a8"><path d="M 0.488281 0 L 47.507812 0 L 47.507812 47.019531 L 0.488281 47.019531 Z M 0.488281 0 " clip-rule="nonzero"/></clipPath><clipPath id="c638a7499a"><path d="M 0.488281 13 L 20 13 L 20 34 L 0.488281 34 Z M 0.488281 13 " clip-rule="nonzero"/></clipPath></defs><g clip-path="url(#fac911d0a8)"><path fill="#ffffff" d="M 0.488281 0 L 47.511719 0 L 47.511719 47.019531 L 0.488281 47.019531 Z M 0.488281 0 " fill-opacity="1" fill-rule="nonzero"/><path fill="#ffffff" d="M 0.488281 0 L 47.511719 0 L 47.511719 47.019531 L 0.488281 47.019531 Z M 0.488281 0 " fill-opacity="1" fill-rule="nonzero"/></g><g clip-path="url(#c638a7499a)"><g fill="#000000" fill-opacity="1"><g transform="translate(0.489796, 33.727443)"><g><path d="M 19.265625 0 L 15.09375 0 L 13.578125 -4.625 L 5.890625 -4.625 L 4.375 0 L 0.296875 0 L 7.234375 -20.078125 L 12.328125 -20.078125 Z M 9.546875 -15.890625 L 6.96875 -7.96875 L 12.484375 -7.96875 L 9.890625 -15.890625 Z M 9.546875 -15.890625 "/></g></g></g></g><g fill="#000000" fill-opacity="1"><g transform="translate(20.053986, 33.727443)"><g><path d="M 10.96875 0.28125 C 9.125 0.28125 7.492188 -0.0976562 6.078125 -0.859375 C 4.671875 -1.628906 3.566406 -2.785156 2.765625 -4.328125 C 1.972656 -5.867188 1.578125 -7.769531 1.578125 -10.03125 C 1.578125 -12.300781 1.972656 -14.207031 2.765625 -15.75 C 3.566406 -17.289062 4.671875 -18.441406 6.078125 -19.203125 C 7.492188 -19.972656 9.125 -20.359375 10.96875 -20.359375 C 12.90625 -20.359375 14.546875 -19.976562 15.890625 -19.21875 C 17.242188 -18.46875 18.207031 -17.320312 18.78125 -15.78125 L 15.890625 -14 L 15.546875 -14.015625 C 15.117188 -15.066406 14.535156 -15.816406 13.796875 -16.265625 C 13.054688 -16.722656 12.113281 -16.953125 10.96875 -16.953125 C 9.300781 -16.953125 8 -16.398438 7.0625 -15.296875 C 6.132812 -14.191406 5.671875 -12.4375 5.671875 -10.03125 C 5.671875 -7.644531 6.132812 -5.898438 7.0625 -4.796875 C 8 -3.691406 9.300781 -3.140625 10.96875 -3.140625 C 13.582031 -3.140625 15.179688 -4.410156 15.765625 -6.953125 L 16.109375 -6.953125 L 19.03125 -5.421875 C 18.476562 -3.515625 17.539062 -2.085938 16.21875 -1.140625 C 14.894531 -0.191406 13.144531 0.28125 10.96875 0.28125 Z M 10.96875 0.28125 "/></g></g></g><g fill="#c98665" fill-opacity="1"><g transform="translate(39.742285, 33.727443)"><g><path d="M 3.875 0.125 C 3.382812 0.125 2.953125 0.0234375 2.578125 -0.171875 C 2.210938 -0.367188 1.929688 -0.640625 1.734375 -0.984375 C 1.535156 -1.335938 1.4375 -1.734375 1.4375 -2.171875 C 1.4375 -2.609375 1.535156 -3 1.734375 -3.34375 C 1.929688 -3.695312 2.210938 -3.972656 2.578125 -4.171875 C 2.953125 -4.378906 3.382812 -4.484375 3.875 -4.484375 C 4.363281 -4.484375 4.796875 -4.382812 5.171875 -4.1875 C 5.546875 -3.988281 5.828125 -3.710938 6.015625 -3.359375 C 6.210938 -3.015625 6.3125 -2.625 6.3125 -2.1875 C 6.3125 -1.519531 6.085938 -0.96875 5.640625 -0.53125 C 5.203125 -0.09375 4.613281 0.125 3.875 0.125 Z M 3.875 0.125 "/></g></g></g></svg>